<svg viewBox="0 0 173.02 42.4" xmlns="http://www.w3.org/2000/svg"><path d="m0 5.67c0-.4.28-.51 1-.63a128.92 128.92 0 0 1 15.1-.73c1 0 1.36.57 1.36.85 0 .45-.68.57-1.87.68-2.33.23-7.14.51-10.77.68.18 2.72.18 10.48.18 17.97a53.07 53.07 0 0 1 8.1-.8 1.64 1.64 0 0 1 1.76 1.25c0 .4-.28.51-.91.57-1.24.06-6.34.4-8.95.57-.06 6.23-.17 12.07-.23 14.73a88 88 0 0 1 9.47-.73c1.42 0 2.55 1.19 1.36 1.36-1 .17-10.55 1-11.62 1-.34 0-1-.74-1-1.81-.12-1.76-.29-24.32 0-33.67v-.38c-.74 0-1.36 0-1.82 0a1.07 1.07 0 0 1 -1.16-.91zm39.68 12.13c.06-.34.12-.62.23-.62s.4.39.4.85c0 1.81-2.38 24.31-7.15 24.31-2 0-3.45-2-3.45-6 0-6.86 1.3-14 1.3-19.44 0-1.3-.28-2-1-2-3.69 0-7.2 16.38-8 26.24a.94.94 0 0 1 -1.01.86c-.73 0-1.36-.63-1.47-2.21-.06-3 .23-21.37.74-24.43.11-.63.22-.91.56-1s.85.34.85 1.31c0 8.33-.17 15.41-.28 19.67 1.6-11.34 4.05-22.34 9.1-22.34 2 0 2.72 1.81 2.72 4.54 0 4.64-1.25 12.64-1.25 18.59 0 3.29.8 4 1.48 4 2.6 0 4.76-11.56 6.23-22.33zm8.22 0c.06-.4.12-.62.23-.62.28 0 .45.51.4 1.13-1.19 10.37-3 24-6.64 24-2 0-3.45-2-3.45-6 0-3 .45-19.1 1-22.16.11-.63.23-.91.57-1s.85.34.85 1.31c0 13.66-.12 18.76-.12 21.54 0 3.29.8 4 1.48 4 2.34.13 4.21-11.43 5.68-22.2zm-9-11.17c0-1.41.74-2.44 1.76-2.44s1.53 1.14 1.53 2c0 1.59-.74 2.55-1.7 2.55s-1.6-1.03-1.6-2.11zm24.48 25.37a.27.27 0 0 1 .28-.29c.34 0 .51.4.51 1.08 0 4.08-1.58 9.52-4.31 9.52-1.92 0-3.57-1.87-3.4-5.21l.4-7.65c-1.25 6.77-2.86 12.89-5.55 12.89-2.5 0-5.05-3.06-5.05-7.65 0-15.47 2.1-21.69 5.74-21.69 2.55 0 4.31 1.64 5.44 3.91-.3-16.57-.18-16.91.67-16.91a1.4 1.4 0 0 1 1.3 1.47c0 6.81-.74 23.81-.74 35.6 0 2.5.8 3.06 1.48 3.06 2.04 0 2.85-4.93 3.23-8.13zm-14.91 3.09c0 2.95.62 5.27 2.21 5.27 3.23 0 6.29-14.45 6.29-20.63 0-3.18-1.7-5-4.3-5s-4.2 5.96-4.2 20.36zm14.23-18.76c0-.68 2.15-5.5 2.15-11.8a.69.69 0 0 1 .63-.73 1.68 1.68 0 0 1 1.7 1.59c0 6.4-3 11.28-4.08 11.28-.29 0-.4-.17-.4-.34zm9.52 26c-2.49 0-4.42-1.81-5.32-4.47-.74 2.5-1.42 4.14-1.9 4.14a1.1 1.1 0 0 1 -1-1 1.19 1.19 0 0 1 .17-.63c2.78-6.18 4.54-17.12 6-27a.63.63 0 0 1 .56-.4c.34 0 .8.62 1.31 1.48a38.64 38.64 0 0 1 5.5 19.1c-.04 5.62-1.97 8.79-5.32 8.79zm3.24-8.33a42.65 42.65 0 0 0 -4.82-19.44 3.78 3.78 0 0 1 -.06.79 131.09 131.09 0 0 1 -3.29 20.92c1.7 2.78 3 4.08 4.82 4.08s3.35-1.92 3.35-6.35zm30.72-29.81c.85 0 1.25.57 1.3 1.93.34 5.5.06 30.78-.11 34.58-.06.85-.17 1.3-.68 1.3s-.91-.45-1-1.87-.17-7.25-.23-13.94c-2.09.11-8 .68-11.73.91-.06 6.34-.17 12-.23 13.6 0 .85-.17 1.3-.68 1.3s-.9-.45-1-1.87-.17-6.69-.22-12.92h-.6c-1.64 0-2.26-.62-2.26-1.13 0-.34.34-.63 1.47-.68.4 0 .85-.06 1.31-.06 0-7.09 0-15 0-20.07 0-.62.29-1.08.68-1.08.85 0 1.25.57 1.31 1.93.17 2.89.17 11.23.11 19.05 4.19-.23 9.81-.57 11.73-.63 0-6.85 0-14.39.06-19.27.09-.62.37-1.08.77-1.08zm6.75 25.68c0-9.24 1.47-17 6.63-17 3.91 0 5.73 3.4 5.73 13.38 0 1.47-.06 2.83-.12 4.13 3.46-1 5.16-6.63 5.73-12.58 0-.28.11-.51.17-.51.28 0 .51.34.45 1-.4 5.05-2.1 13-6.46 13.66-.62 6.69-2.55 10.38-5.9 10.38-4.81-.04-6.23-4.75-6.23-12.46zm10.15 1.76a1.24 1.24 0 0 1 -.63-1.13 1.71 1.71 0 0 1 .74-1.42c.11-1.3.11-2.72.11-4.25 0-8.22-1.42-10.43-3.74-10.43-3.56 0-4.56 6.91-4.56 16.6 0 5.67 1.24 9.69 3.91 9.69 2.35-.05 3.66-3.39 4.17-9.06zm17.23 5.5.34-10.13c-1.13 7.6-2.44 15.3-5.5 15.3-2.49 0-5-3.06-5-7.65a185.1 185.1 0 0 1 .9-19.9c.12-1.07.29-1.47.68-1.47s1.14.57 1.14 1.87c0 2.61-.51 13.27-.51 19.9 0 2.95.62 5.27 2.21 5.27 3.23 0 5.84-15.19 6.4-23.07.17-2.67.23-3.69 1-3.69s1.19.8 1.19 1.76c0 4.14-.57 14.51-.57 21.71 0 2.5.79 3.06 1.47 3.06 2.61 0 4.82-11.56 6.3-22.33.17-1.3.73-.34.62.51-1.19 10.37-3.23 24-7.2 24-2 .07-3.58-1.8-3.47-5.14zm17.52 0a58.67 58.67 0 0 0 5.27-19.44c.11-1 .68-.4.62.51-.39 6.74-3.23 24.14-10.65 24.14h-.17c-3 0-5.11-2.55-5.79-6.06-.11-.51.17-1.08.46-.62 1.92 3.23 3.28 4.7 5.21 4.7 1.76 0 3.35-1.93 3.35-6.35a42.65 42.65 0 0 0 -4.82-19.44c-.12 1.87-.57 4.7-.74 6.29-.06.62-.17.74-.34.74s-.45-.12-.4-.51c.23-1.76.63-4.88 1-7.77a.55.55 0 0 1 .56-.51c.35 0 .8.62 1.31 1.48a38.54 38.54 0 0 1 5.5 19.1 18.78 18.78 0 0 1 -.37 3.74zm14.4-5.1a.27.27 0 0 1 .28-.29c.34 0 .51.4.51 1.08 0 4.08-1.87 9.47-5.1 9.47-4.59 0-6.46-3.63-6.46-7.94 0-14.79 1.87-21.48 6.4-21.48 2.67 0 4.88 2.21 4.88 5.67 0 4.64-3.06 7.59-8.85 9.46 0 1.76-.11 3.69-.11 5.9 0 4.36 1.64 6.46 3.74 6.46 3.01 0 4.31-4.93 4.71-8.36zm-8.23-5.03a9.74 9.74 0 0 0 6.92-9.35c0-2.1-.85-3.29-2.44-3.29-2.38-.02-4.02 3.27-4.48 12.64z" fill="#29abe2"/></svg>